<?xml version="1.0" encoding="utf-8"?>
<!-- Generator: Adobe Illustrator 19.1.0, SVG Export Plug-In . SVG Version: 6.00 Build 0)  -->
<svg version="1.1" id="Layer_1" xmlns="http://www.w3.org/2000/svg" xmlns:xlink="http://www.w3.org/1999/xlink" x="0px" y="0px"
	 viewBox="0 38.4 480 560" style="enable-background:new 0 38.4 480 560;" xml:space="preserve">
<style type="text/css">
	.st0{fill:#888A8B;}
	.st1{fill:#FFFFFF;}
	.st2{fill:#646668;}
	.st3{fill:#7C7E80;}
	.st4{fill:#797B7D;}
	.st5{fill:#F8D7E5;}
	.st6{fill:#583527;}
	.st7{fill:#2D2C2E;}
	.st8{fill:#4A4C4E;}
</style>
<g>
	<g>
		<g>
			<path class="st0" d="M361.3,412c0,80.8-54,146.3-120.6,146.3c-66.6,0-120.6-65.6-120.6-146.3c0-80.8,54-146.3,120.6-146.3
				S361.3,331.3,361.3,412z"/>
		</g>
	</g>
	<path class="st1" d="M142.8,316.9c-0.3,3-0.4,6-0.4,9.1c0,58.1,44,105.3,98.4,105.3s98.4-47.2,98.4-105.3c0-3.1-0.2-6.1-0.4-9.1
		c-27.2-13.5-61.1-21.5-98-21.5C203.9,295.4,169.9,303.5,142.8,316.9z"/>
	<g>
		<g>
			<g>
				<path class="st2" d="M329,336.9c-3.7,7.9-7.6,16-11.9,23.9c-2.1,3.9-4.3,7.8-6.6,11.5c-11,27.9-40.8,33.9-45.7,57.1
					c-5.6,24.8,28.3,49.6,49.7,41.5c4.8-1.6,9.6-4.4,14.5-8.3c27.8-31.9,62.5-75.7,54.8-135c-1.9-10.1-5.9-19.8-11.5-26.7
					c-5.6-6.9-12.6-10.8-20.8-9.5c-11.7,2.6-19.7,18.7-18.4,35.5C332,330,330.6,333.2,329,336.9z"/>
			</g>
		</g>
		<g>
			<g>
				<path class="st2" d="M152.5,336.9c3.7,7.9,7.6,16,11.9,23.9c2.1,3.9,4.3,7.8,6.6,11.5c11,27.9,40.8,33.9,45.7,57.1
					c5.6,24.8-28.3,49.6-49.7,41.5c-4.8-1.6-9.6-4.4-14.4-8.3c-27.8-31.9-62.5-75.7-54.9-135c1.9-10.1,5.9-19.8,11.5-26.7
					c5.6-6.9,12.6-10.8,20.8-9.5c11.7,2.6,19.8,18.7,18.4,35.5C149.4,330,150.9,333.2,152.5,336.9z"/>
			</g>
		</g>
	</g>
	<g>
		<g>
			<g>
				<g>
					<path class="st3" d="M165.3,138.8c9.8,37.8-25.1,77.2-77,73.2c-51.5-7.3-77-53.3-59.3-88.2C47.5,87.2,74.6,56.9,105,60.3
						C135.4,63.5,155.2,98.9,165.3,138.8z"/>
				</g>
				<g>
					<path class="st1" d="M145.1,138.1c7,26.9-17.9,54.9-54.7,52.1c-36.6-5.2-54.9-37.9-42.3-62.7c13.2-26.1,32.4-47.7,54-45.3
						C123.8,84.5,137.9,109.7,145.1,138.1z"/>
				</g>
				<g>
					<g>
						<path class="st4" d="M141.5,137.9c6.5,24.9-16.6,50.9-50.7,48.3c-33.9-4.8-50.9-35.2-39.1-58.1c12.1-24.3,30-44.2,50.1-42
							C121.7,88.3,134.8,111.6,141.5,137.9z"/>
					</g>
				</g>
			</g>
			<g>
				<g>
					<path class="st3" d="M316.1,138.8c-9.8,37.8,25.1,77.2,77,73.2c51.5-7.3,77.1-53.3,59.3-88.2c-18.5-36.8-45.4-67-75.8-63.7
						C346,63.5,326.2,98.9,316.1,138.8z"/>
				</g>
				<g>
					<path class="st1" d="M336.4,138.1c-7,26.9,17.9,54.9,54.7,52.1c36.6-5.2,54.8-37.9,42.2-62.7c-13.2-26.1-32.4-47.7-54-45.3
						C357.6,84.5,343.5,109.7,336.4,138.1z"/>
				</g>
				<g>
					<g>
						<path class="st4" d="M340,137.9c-6.5,24.9,16.6,50.9,50.7,48.3c33.9-4.8,50.9-35.2,39.1-58.1c-12.1-24.3-30-44.2-50.1-42
							C359.7,88.3,346.6,111.6,340,137.9z"/>
					</g>
				</g>
			</g>
		</g>
		<path class="st4" d="M371.8,223.7c0,79.8-58.7,144.5-131,144.5c-72.4,0-131-64.7-131-144.5s58.7-144.5,131-144.5
			C313.1,79.2,371.8,143.9,371.8,223.7z"/>
		<path class="st5" d="M258.8,343.6c0,5.6-8.1,10.1-18.1,10.1c-10,0-18.1-4.5-18.1-10.1c0-5.6,8.1-10.1,18.1-10.1
			C250.7,333.5,258.8,338.1,258.8,343.6z"/>
		<g>
			<g>
				<path class="st1" d="M144.9,230.3c-6.5,11.1-2.7,25.3,8.4,31.8c11.1,6.5,25.3,2.7,31.8-8.4c6.5-11.1,2.7-25.3-8.4-31.8
					C165.6,215.4,151.4,219.2,144.9,230.3z"/>
				<g>
					<path class="st6" d="M181.3,232.5c5.2,9,2.1,20.5-6.9,25.7c-9,5.2-20.5,2.1-25.7-6.9c-5.2-9-2.1-20.5,6.9-25.7
						C164.6,220.5,176.1,223.5,181.3,232.5z"/>
					<g>
						<g>
							<path class="st1" d="M161.4,238.6c1.4,2.4,0.6,5.5-1.9,6.9c-2.4,1.4-5.5,0.6-7-1.9c-1.4-2.4-0.6-5.5,1.9-7
								C157,235.2,160,236.1,161.4,238.6z"/>
							<path class="st1" d="M178.3,242c0.9,1.6,0.4,3.5-1.2,4.4c-1.5,0.9-3.5,0.4-4.4-1.2c-0.9-1.5-0.4-3.5,1.1-4.4
								C175.4,240,177.4,240.5,178.3,242z"/>
						</g>
					</g>
				</g>
			</g>
			<g>
				<path class="st1" d="M296.3,230.3c-6.5,11.1-2.7,25.3,8.4,31.8c11.1,6.5,25.3,2.7,31.8-8.4c6.5-11.1,2.7-25.3-8.4-31.8
					C317,215.4,302.7,219.2,296.3,230.3z"/>
				<g>
					<path class="st6" d="M332.7,232.5c5.2,9,2.1,20.5-6.9,25.7c-9,5.2-20.5,2.1-25.7-6.9c-5.2-9-2.1-20.5,6.9-25.7
						C316,220.5,327.5,223.5,332.7,232.5z"/>
					<g>
						<g>
							<path class="st1" d="M312.8,238.6c1.4,2.4,0.6,5.5-1.9,6.9c-2.4,1.4-5.5,0.6-7-1.9c-1.4-2.4-0.6-5.5,1.9-7
								C308.4,235.2,311.4,236.1,312.8,238.6z"/>
							<path class="st1" d="M329.6,242c0.8,1.6,0.4,3.5-1.2,4.4c-1.5,0.9-3.4,0.4-4.4-1.2c-0.9-1.5-0.4-3.5,1.2-4.4
								C326.8,240,328.8,240.5,329.6,242z"/>
						</g>
					</g>
				</g>
			</g>
		</g>
		<g>
			<path class="st7" d="M280.2,295.8c0,27-17.5,48.8-39.1,48.8s-39-21.9-39-48.8c0-27,17.5-48.8,39-48.8
				C262.7,247,280.2,268.8,280.2,295.8z"/>
		</g>
	</g>
	<g>
		<path class="st2" d="M189.9,513.7c8.2,24.8-0.1,49.7-18.3,55.6c-18.2,5.9-39.5-9.3-47.7-34s0.1-49.7,18.3-55.6
			C160.4,473.7,181.7,488.9,189.9,513.7z"/>
		<path class="st2" d="M291.5,513.7c-8.2,24.8,0.1,49.7,18.3,55.6c18.2,5.9,39.5-9.3,47.7-34s0-49.7-18.3-55.6
			C321,473.7,299.7,488.9,291.5,513.7z"/>
	</g>
	<g>
		<g>
			<g>
				<path class="st8" d="M269.3,579.1c-8.3-9.2-5.5-34.2,10.4-52.8c17.2-18.3,35-26.4,44.7-16.1c10.7,9.7,18.4,39.3-1,58.6
					C303.5,587.1,277,587.5,269.3,579.1z"/>
			</g>
			<path class="st5" d="M273.8,553.5c-4.5,4.1-3.7,12.3,1.8,18.3c5.5,6,13.5,7.5,18.1,3.4c4.5-4.1,3.7-12.3-1.8-18.4
				C286.4,550.9,278.3,549.3,273.8,553.5z"/>
			<path class="st5" d="M308.9,514.2c-2.9-2.2-7.6-0.8-10.5,3c-2.9,3.8-3,8.7-0.1,10.9c2.9,2.2,7.6,0.8,10.5-3
				C311.8,521.3,311.8,516.3,308.9,514.2z"/>
			<path class="st8" d="M321.6,489.4c-4.5-1.9-10.2,1.5-12.7,7.4c-2.5,6-0.9,12.4,3.6,14.3c4.5,1.9,10.2-1.5,12.7-7.4
				C327.8,497.6,326.1,491.2,321.6,489.4z"/>
			<path class="st8" d="M340,507.6c-3.8-3.1-10.2-1.3-14.2,3.8s-4.2,11.7-0.4,14.7c3.8,3.1,10.2,1.3,14.2-3.8
				C343.6,517.3,343.8,510.7,340,507.6z"/>
			<path class="st8" d="M349.6,531.5c-2.9-4-9.5-4.1-14.7-0.3c-5.3,3.8-7.2,10.1-4.4,14.1c2.9,4,9.5,4.1,14.7,0.3
				C350.5,541.8,352.4,535.5,349.6,531.5z"/>
			<path class="st5" d="M322.6,527.3c-2.4-2.8-7.4-2.4-11.1,0.9c-3.7,3.2-4.7,8.2-2.2,10.9c2.4,2.8,7.4,2.4,11.1-0.9
				C324,535,325,530.1,322.6,527.3z"/>
			<path class="st5" d="M328.8,545.9c-1.4-2.7-5.4-3.3-8.9-1.5s-5.3,5.5-3.9,8.2c1.4,2.7,5.4,3.3,8.9,1.5
				C328.4,552.2,330.2,548.5,328.8,545.9z"/>
			<polygon class="st8" points="319,494.9 315.5,493.5 320.5,486.5 325.4,479.5 323.9,488 322.3,496.4 			"/>
			<polygon class="st8" points="335.8,512.8 333.8,509.8 341.8,506.7 349.7,503.6 343.8,509.8 337.9,515.9 			"/>
			<polygon class="st8" points="343.8,536.8 341.8,533.8 349.7,530.7 357.7,527.7 351.8,533.8 345.8,539.9 			"/>
		</g>
		<g>
			<g>
				<path class="st8" d="M212.1,579.1c8.3-9.2,5.5-34.2-10.4-52.8c-17.2-18.3-35-26.4-44.7-16.1c-10.7,9.7-18.4,39.2,1,58.6
					C177.9,587.1,204.5,587.5,212.1,579.1z"/>
			</g>
			<path class="st5" d="M207.6,553.5c4.5,4.1,3.7,12.3-1.8,18.3c-5.5,6-13.5,7.5-18.1,3.4c-4.5-4.1-3.7-12.3,1.8-18.4
				C195.1,550.9,203.2,549.3,207.6,553.5z"/>
			<path class="st5" d="M172.5,514.2c2.9-2.2,7.6-0.8,10.5,3c2.9,3.8,3,8.7,0.1,10.9c-2.9,2.2-7.6,0.8-10.5-3
				C169.6,521.3,169.6,516.3,172.5,514.2z"/>
			<path class="st8" d="M159.8,489.4c4.5-1.9,10.2,1.5,12.7,7.4c2.5,6,0.9,12.4-3.6,14.3c-4.5,1.9-10.2-1.5-12.7-7.4
				C153.6,497.6,155.3,491.2,159.8,489.4z"/>
			<path class="st8" d="M141.5,507.6c3.8-3.1,10.2-1.3,14.2,3.8s4.2,11.7,0.4,14.7c-3.8,3.1-10.2,1.3-14.2-3.8
				C137.8,517.3,137.6,510.7,141.5,507.6z"/>
			<path class="st8" d="M131.9,531.5c2.9-4,9.5-4.1,14.7-0.3c5.3,3.8,7.2,10.1,4.4,14.1c-2.9,4-9.5,4.1-14.7,0.3
				C130.9,541.8,129,535.5,131.9,531.5z"/>
			<path class="st5" d="M158.9,527.3c2.4-2.8,7.4-2.4,11.1,0.9c3.7,3.2,4.7,8.2,2.2,10.9c-2.4,2.8-7.4,2.4-11.1-0.9
				C157.4,535,156.4,530.1,158.9,527.3z"/>
			<path class="st5" d="M152.6,545.9c1.4-2.7,5.4-3.3,8.9-1.5s5.3,5.5,3.9,8.2c-1.4,2.7-5.4,3.3-8.9,1.5
				C153,552.2,151.2,548.5,152.6,545.9z"/>
			<polygon class="st8" points="162.5,494.9 165.9,493.5 161,486.5 156,479.5 157.5,488 159.1,496.4 			"/>
			<polygon class="st8" points="145.6,512.8 147.6,509.8 139.6,506.7 131.7,503.6 137.6,509.8 143.5,515.9 			"/>
			<polygon class="st8" points="137.7,536.8 139.7,533.8 131.8,530.7 123.8,527.7 129.7,533.8 135.7,539.9 			"/>
		</g>
	</g>
	<g>
		<g>
			<polygon class="st8" points="221,441.5 219.9,443.9 226.1,445 232.2,446.2 227.2,442.6 222.3,439.1 			"/>
			<polygon class="st8" points="210,459.5 208.8,461.9 214.9,463 221,464.1 216.1,460.6 211.1,457.2 			"/>
			<polygon class="st8" points="192.7,473.2 191.5,475.5 197.6,476.7 203.7,477.8 198.8,474.3 193.8,470.8 			"/>
			<path class="st2" d="M197,472.8c-1.1,3.7-6.7,5.3-12.4,3.5c-5.7-1.8-9.5-6.2-8.3-9.9c1.1-3.7,6.7-5.3,12.4-3.5
				C194.4,464.7,198.1,469.1,197,472.8z"/>
			<path class="st2" d="M214.6,460c-0.9,3.8-6.4,5.7-12.1,4.3c-5.8-1.4-9.8-5.6-8.9-9.4c0.9-3.8,6.4-5.7,12.1-4.3
				C211.5,452,215.4,456.2,214.6,460z"/>
			<path class="st2" d="M225.2,442.3c-0.9,3.8-6.4,5.7-12.1,4.3c-5.8-1.4-9.8-5.6-8.9-9.4c0.9-3.8,6.4-5.7,12.2-4.3
				C222.2,434.3,226.1,438.6,225.2,442.3z"/>
		</g>
		<g>
			<polygon class="st8" points="260.4,441.5 261.6,443.9 255.4,445 249.3,446.2 254.2,442.6 259.2,439.2 			"/>
			<polygon class="st8" points="271.4,459.6 272.6,462 266.5,463.1 260.4,464.2 265.3,460.7 270.3,457.2 			"/>
			<polygon class="st8" points="288.7,473.3 289.9,475.7 283.8,476.8 277.7,478 282.6,474.4 287.6,470.9 			"/>
			<path class="st2" d="M284.5,473c1.1,3.7,6.7,5.3,12.4,3.5c5.7-1.8,9.5-6.2,8.3-9.9c-1.1-3.7-6.7-5.3-12.4-3.5
				C287,464.8,283.3,469.2,284.5,473z"/>
			<path class="st2" d="M266.9,460.1c0.9,3.8,6.4,5.7,12.1,4.3c5.8-1.4,9.8-5.7,8.9-9.4c-0.9-3.8-6.4-5.7-12.1-4.3
				C270,452.1,266,456.3,266.9,460.1z"/>
			<path class="st2" d="M256.3,442.4c0.9,3.8,6.4,5.7,12.1,4.3c5.8-1.4,9.7-5.7,8.9-9.4c-0.9-3.8-6.4-5.7-12.1-4.3
				C259.3,434.3,255.4,438.6,256.3,442.4z"/>
		</g>
	</g>
</g>
</svg>
