<?xml version="1.0" encoding="utf-8"?>
<!-- Generator: Adobe Illustrator 19.1.0, SVG Export Plug-In . SVG Version: 6.00 Build 0)  -->
<svg version="1.1" id="Layer_1" xmlns="http://www.w3.org/2000/svg" xmlns:xlink="http://www.w3.org/1999/xlink" x="0px" y="0px"
	 viewBox="0 41 480 560" style="enable-background:new 0 41 480 560;" xml:space="preserve">
<style type="text/css">
	.st0{fill:#3D3D3D;}
</style>
<g>
	<path class="st0" d="M89.8,484.6c2.8,20.3,13.4,34.4,19.4,53.5c1.3,4.1-1.3,9.6-2.6,13.8c-1.3,2.8,1.3,5.5,2.5,6.9
		c2.7,3.6,7.4,5.6,12.4,7.2c5,1.6,10.4,2.7,14.6,4.6c3.9,1.3,7.6,2.8,10.9,4.9c4.3,1.8,8.8,3.3,13.5,4.4c19.3,4.7,40.7,3.9,61.9-0.5
		c4.2-0.9,8.5-1.9,12.7-3c3.4-1.1,7-1.9,10.5-2.4c31,2.7,72.8,9.6,85.9-31.7c10.5-31.7,10.5-66.1-10.5-95
		c-2.5-3.5,2.3-14.1,3.3-17.8c2.3-8.7,5.1-17.1,8.4-25.4c6.9-17.3,15.2-34.3,18.6-52.8c1.9-9.9,2.4-20.7,0-30.7
		c-0.7-2.9-1.5-5.9-2.3-8.7c-8-28.8-20.4-54-36-73.6c-3.1-3.9-6.4-7.6-9.7-11.1c-15.1-13.9-28.2-37.3-49.1-34.6
		c-52.3,8.3-104.5,39.9-127.5,91.1c-1.7,3.9-3.5,7.7-5.2,11.6c-5.1,11.7-10,23.6-14.3,35.7c-1.7,4.8-3.4,9.7-4.9,14.7
		c-2.3,7.9-4.1,15.9-5.6,24.1c-0.7,4.1-1.4,8.2-2,12.3c-0.5,3.8-0.9,7.7-1.3,11.6s-0.8,7.7-1.1,11.6c-1.6,25.1-5.1,50.4-2.9,75.5
		C89.5,482.1,89.6,483.4,89.8,484.6z"/>
	<g>
		<g>
			<g>
				<path class="st0" d="M264.5,563.6c6.2-0.3,12.6-0.6,18.9-0.6c3.2,0,6.3,0.1,9.4,0.3c21.2-2.5,34.8,15,51,10.1
					c17.3-5,21.6-36,9.5-47.4c-2.6-2.6-5.9-4.8-10-6.6c-29.3-7.2-68.3-14.6-102.8,11.3c-5.7,4.8-10.4,10.9-12.9,16.9
					c-2.5,6.1-2.6,12.1,1,17c5.5,6.8,18.3,6.5,28.4-0.4C259,564,261.6,563.8,264.5,563.6z"/>
			</g>
		</g>
		<g>
			<polygon class="st0" points="352.8,572.1 353.9,570.5 356.6,574.2 359.4,577.8 355.5,575.7 351.7,573.7 			"/>
			<polygon class="st0" points="360.4,558.5 361.5,556.9 364.2,560.5 366.9,564.2 363.1,562.1 359.3,560.1 			"/>
			<polygon class="st0" points="363.1,542.3 364.3,540.7 367,544.3 369.7,547.9 365.9,545.9 362,543.8 			"/>
			<path class="st0" d="M364.4,545.3c1.9-2.1,1.1-6.3-1.9-9.4c-3-3.2-7-4-9-2c-1.9,2-1.1,6.3,1.9,9.4S362.4,547.3,364.4,545.3z"/>
			<path class="st0" d="M362.1,561.3c2.1-1.9,1.4-6.2-1.4-9.5s-6.8-4.5-8.8-2.6c-2.1,1.9-1.4,6.2,1.4,9.5
				C356.1,562.1,360.1,563.2,362.1,561.3z"/>
			<path class="st0" d="M354.6,574.5c2-1.9,1.4-6.2-1.4-9.5s-6.8-4.5-8.8-2.6s-1.4,6.2,1.4,9.5C348.6,575.3,352.6,576.5,354.6,574.5
				z"/>
		</g>
	</g>
	<g>
		<g>
			<path class="st0" d="M58.4,498.3c6.6,25.1,16.7,41.2,29.5,50.6c12.5,9.4,27.8,12,36.9,11.3c9.8-1.7,8.4-5.5,1.2-19.1
				c-7.2-13.4-27.1-31.6-33.1-70.6c-5.5-36.1-32.6-75.8-49.2-87.1c-16.6-12.7-30.8-15.1-31.5-15.5c-16.5-8.8,16.2,30.2,25.3,52.4
				C47.1,442,51.8,473.7,58.4,498.3z"/>
		</g>
	</g>
	<path class="st0" d="M343,357c-23.2-31.7-49.7-62.5-66.9-72.6c-17.8-11.3-25.4-7.7-24.9-7c0.3,1.5,14,13.5,29.6,34.3
		c15.8,20.4,31.5,50.4,46.1,73.5c2.8,4.5,5.6,8.7,8.3,12.5c4.6-11.1,9.4-22.1,12.9-33.7C346.4,361.7,344.7,359.4,343,357z"/>
	<path class="st0" d="M118.7,473.2C109.2,467.5,99.1,460,89,452c-0.4,9.4-0.4,18.7,0.3,28.1c17,8.9,32.3,15.3,42.9,16.9
		c20.4,4,26.4-2.2,25.6-2.7C157.1,493,140.2,486.9,118.7,473.2z"/>
	<g>
		<path class="st0" d="M450.5,190.3c0-48.1-46.8-87.1-104.5-87.1s-104.5,39-104.5,87.1c0,31.1,19.6,58.4,49.2,73.8
			c15.2,23.8,32.6,56.6,55.4,55.8c22.8,0.7,40.1-32,55.4-55.8C430.9,248.7,450.5,221.4,450.5,190.3z"/>
		<g>
			<g>
				<g>
					<g>
						<path class="st0" d="M220.8,171c7.6,17.9,27.5,25,40.1,10.2c11.6-16.2,6-41.4-8-51.1c-14.8-10.3-30.1-15.7-37.2-6.5
							C208.5,132.7,212.7,152.2,220.8,171z"/>
					</g>
				</g>
				<g>
					<path class="st0" d="M226,165.5c5.4,12.7,19.5,17.8,28.5,7.2c8.3-11.5,4.3-29.5-5.7-36.3c-10.5-7.3-21.4-11.1-26.5-4.6
						C217.2,138.3,220.2,152.1,226,165.5z"/>
				</g>
				<g>
					<g>
						<path class="st0" d="M226.9,164.5c5,11.8,18.1,16.5,26.5,6.7c7.7-10.7,4-27.3-5.3-33.7c-9.8-6.8-19.9-10.3-24.6-4.3
							C218.7,139.3,221.6,152.1,226.9,164.5z"/>
					</g>
				</g>
			</g>
			<g>
				<g>
					<g>
						<path class="st0" d="M471.2,171c-7.6,17.9-27.5,25-40.1,10.2c-11.6-16.2-6-41.4,8-51.1c14.8-10.3,30.1-15.7,37.2-6.5
							C483.5,132.7,479.3,152.2,471.2,171z"/>
					</g>
				</g>
				<g>
					<path class="st0" d="M466,165.5c-5.4,12.7-19.5,17.8-28.5,7.2c-8.3-11.5-4.3-29.5,5.7-36.3c10.5-7.3,21.4-11.1,26.5-4.6
						C474.8,138.3,471.8,152.1,466,165.5z"/>
				</g>
				<g>
					<path class="st0" d="M465.1,164.5c-5,11.8-18.1,16.5-26.5,6.7c-7.7-10.7-4-27.3,5.3-33.7c9.8-6.8,19.9-10.3,24.6-4.3
						C473.2,139.3,470.4,152.1,465.1,164.5z"/>
				</g>
			</g>
		</g>
		<g>
			<path class="st0" d="M374,259c8.9,23.7-3.6,52.2-28,53.3c-24.5-1.1-36.9-29.5-28-53.3c9.2-25,17.2-46.9,28-46.9
				C356.8,212.2,364.9,234,374,259z"/>
		</g>
		<g>
			<g>
				<g>
					<g>
						<path class="st0" d="M323.5,290.5c0,7.9,10.1,14.3,22.6,14.3c12.4,0,22.5-6.5,22.5-14.4s-10.1-14.3-22.6-14.3
							C333.5,276.1,323.4,282.6,323.5,290.5z"/>
					</g>
				</g>
				<path class="st0" d="M356.5,286.8c0,2,1.6,3.7,3.5,3.7s3.5-1.7,3.5-3.7s-1.6-3.7-3.5-3.7S356.5,284.8,356.5,286.8z"/>
			</g>
		</g>
		<g>
			<g>
				<g>
					<path class="st0" d="M321,220.1c-8.5,8.7-21.6,6.5-30.9-0.9c-5.7-4.8-7.9-13.3-5.3-18.8c7.2-13.7,28-3,34.5,8.2
						C321.9,212.4,322.6,216.5,321,220.1z"/>
				</g>
			</g>
			<g>
				<g>
					<path class="st0" d="M370.9,220.1c8.5,8.7,21.6,6.5,30.9-0.9c5.7-4.8,7.9-13.3,5.3-18.8c-7.2-13.7-28-3-34.5,8.2
						C370.1,212.4,369.4,216.5,370.9,220.1z"/>
				</g>
			</g>
		</g>
		<g>
			<g>
				<path class="st0" d="M313.4,203.6c3.3,5.9,1.4,13.5-4.3,17c-5.6,3.5-12.9,1.4-16.1-4.5c-3.3-5.9-1.4-13.5,4.3-17
					C302.9,195.6,310.1,197.6,313.4,203.6z"/>
				<g>
					<path class="st0" d="M294.9,204.8c-2.6,4.8-1.1,11,3.5,13.7c4.6,2.8,10.4,1.2,13.1-3.7c2.6-4.8,1.1-11-3.5-13.7
						C303.4,198.3,297.6,200,294.9,204.8z"/>
					<g>
						<path class="st0" d="M305,208c-0.7,1.3-0.3,2.9,0.9,3.7c1.2,0.8,2.8,0.3,3.5-1s0.3-3-0.9-3.7C307.3,206.2,305.7,206.7,305,208
							z"/>
						<path class="st0" d="M296.5,209.8c-0.4,0.8-0.2,1.8,0.6,2.3c0.8,0.5,1.8,0.2,2.2-0.6c0.4-0.8,0.2-1.9-0.6-2.3
							C297.9,208.7,296.9,209,296.5,209.8z"/>
					</g>
				</g>
			</g>
			<g>
				<path class="st0" d="M399,203.6c3.3,5.9,1.4,13.5-4.3,17c-5.6,3.5-12.9,1.4-16.1-4.5c-3.3-5.9-1.4-13.5,4.3-17
					C388.5,195.6,395.7,197.6,399,203.6z"/>
				<g>
					<path class="st0" d="M380.5,204.8c-2.6,4.8-1.1,11,3.5,13.7c4.6,2.8,10.4,1.2,13.1-3.7c2.6-4.8,1.1-11-3.5-13.7
						C389,198.3,383.2,200,380.5,204.8z"/>
					<g>
						<path class="st0" d="M390.6,208c-0.7,1.3-0.3,2.9,0.9,3.7c1.2,0.8,2.8,0.3,3.5-1s0.3-3-0.9-3.7
							C392.9,206.2,391.3,206.7,390.6,208z"/>
						<path class="st0" d="M382.1,209.8c-0.5,0.8-0.2,1.8,0.6,2.3c0.8,0.5,1.8,0.2,2.2-0.6c0.4-0.8,0.2-1.9-0.6-2.3
							C383.5,208.7,382.5,209,382.1,209.8z"/>
					</g>
				</g>
			</g>
		</g>
		<g>
			<path class="st0" d="M327.8,187.5c0,3.5-2.7,6.3-5.9,6.3c-3.3,0-5.9-2.8-5.9-6.3c0-3.4,2.7-6.2,5.9-6.2
				C325.2,181.3,327.8,184.1,327.8,187.5z"/>
			<path class="st0" d="M364.1,187.5c0,3.5,2.7,6.3,5.9,6.3c3.3,0,5.9-2.8,5.9-6.3c0-3.4-2.7-6.2-5.9-6.2
				C366.8,181.3,364.1,184.1,364.1,187.5z"/>
		</g>
	</g>
	<g>
		<g>
			<g>
				<path class="st0" d="M307.5,411.4c3.8,3.9,7.6,7.9,11.2,12c1.8,2.1,3.6,4.2,5.2,6.3c13.7,12.4,11.2,31.4,23.4,39.1
					c12.9,8.4,33.7-6.6,33.3-21.1c0.1-3.2-0.6-6.7-1.9-10.3c-12.6-23.2-30.7-52.9-65.8-60.6c-6.1-0.9-12.4-0.6-17.4,1.3
					s-8.6,5.3-9.4,10.5c-0.8,7.5,6.8,15.7,16.6,18.3C304.2,408.2,305.8,409.7,307.5,411.4z"/>
			</g>
		</g>
		<g>
			<polygon class="st0" points="353.4,474 355,473.8 354.4,477.7 353.9,481.5 352.9,477.9 351.9,474.2 			"/>
			<polygon class="st0" points="365.8,471.1 367.4,470.9 366.9,474.8 366.3,478.7 365.3,475 364.3,471.3 			"/>
			<polygon class="st0" points="377,463.6 378.6,463.4 378,467.3 377.5,471.1 376.5,467.5 375.4,463.8 			"/>
			<path class="st0" d="M375.9,466.1c2.3,0.1,4.3-2.9,4.5-6.7c0.1-3.8-1.7-6.9-4-7s-4.3,2.9-4.4,6.7
				C371.8,462.9,373.6,466,375.9,466.1z"/>
			<path class="st0" d="M365.2,473.9c2.3,0.2,4.5-2.6,4.8-6.4s-1.3-7-3.6-7.2c-2.3-0.2-4.5,2.6-4.8,6.4
				C361.3,470.4,362.9,473.6,365.2,473.9z"/>
			<path class="st0" d="M353.1,476.6c2.3,0.2,4.5-2.6,4.8-6.4s-1.3-7-3.6-7.2c-2.3-0.2-4.5,2.6-4.8,6.4
				C349.1,473.1,350.7,476.3,353.1,476.6z"/>
		</g>
	</g>
</g>
</svg>
